<svg id="Layer_1" data-name="Layer 1" xmlns="http://www.w3.org/2000/svg" viewBox="0 0 128 128"><title>GAS STATION</title><path d="M68.25,29.917H26.917a1.75,1.75,0,0,0-1.75,1.75v29a1.75,1.75,0,0,0,1.75,1.75H68.25A1.75,1.75,0,0,0,70,60.667v-29A1.75,1.75,0,0,0,68.25,29.917Zm-27.9,29,10.405-25.5h1.174l-10.405,25.5Zm-11.688-25.5H40.146l-10.405,25.5H28.667Zm4.854,25.5,10.405-25.5h3.054l-10.405,25.5Zm11.788,0,10.405-25.5h1.1l-10.4,25.5Zm21.192,0H50.187l10.4-25.5H66.5Z"/><path d="M40.25,69.25H26.917A1.75,1.75,0,0,0,25.167,71v5.333a1.75,1.75,0,0,0,1.75,1.75H40.25A1.75,1.75,0,0,0,42,76.333V71A1.75,1.75,0,0,0,40.25,69.25ZM38.5,74.583H28.667V72.75H38.5Z"/><path d="M68.25,69.25H54.917A1.75,1.75,0,0,0,53.167,71v5.333a1.75,1.75,0,0,0,1.75,1.75H68.25A1.75,1.75,0,0,0,70,76.333V71A1.75,1.75,0,0,0,68.25,69.25ZM66.5,74.583H56.667V72.75H66.5Z"/><path d="M115,35.719H102.518V34.042a1.751,1.751,0,0,0-2.311-1.658l-12.1,4.091a1.751,1.751,0,0,0-1.189,1.658v2.514A7.089,7.089,0,0,0,81.583,47.5V81.833a3.583,3.583,0,0,1-2.958,3.521V24.417H79.75a1.75,1.75,0,0,0,1.75-1.75V13a1.75,1.75,0,0,0-1.75-1.75H15.417A1.75,1.75,0,0,0,13.667,13v9.667a1.75,1.75,0,0,0,1.75,1.75h1.125V96.583H13a1.75,1.75,0,0,0-1.75,1.75V115A1.75,1.75,0,0,0,13,116.75H82.167a1.75,1.75,0,0,0,1.75-1.75V98.333a1.75,1.75,0,0,0-1.75-1.75H78.625v-7.7a7.09,7.09,0,0,0,6.458-7.052V47.5a3.571,3.571,0,0,1,1.833-3.107v1.748a1.75,1.75,0,0,0,1.75,1.75h12.1a1.75,1.75,0,0,0,1.75-1.75V44.466H115a1.75,1.75,0,0,0,1.75-1.75V37.469A1.75,1.75,0,0,0,115,35.719ZM17.167,14.75H78v6.167H17.167Zm63.25,98.5H14.75V100.083H80.417ZM20.042,96.583V24.417H75.125V96.583Zm78.976-52.19h-8.6v-5l8.6-2.908Zm14.232-3.427H102.518V39.219H113.25Z"/></svg>