<svg xmlns="http://www.w3.org/2000/svg" viewBox="0 0 512 512"><g id="Peach"><path d="M303.31,172.23A103,103,0,0,0,256,183.83a103,103,0,0,0-47.31-11.6c-60.22,0-109.21,52.83-109.21,117.76,0,98.2,70.21,178.09,156.52,178.09S412.52,388.19,412.52,290C412.52,225.06,363.53,172.23,303.31,172.23ZM256,454.08c-78.59,0-142.52-73.61-142.52-164.09,0-57.22,42.71-103.76,95.21-103.76a87.3,87.3,0,0,1,32.95,6.38,101.81,101.81,0,0,0-17,16.09c-17.77,21.07-27,48.45-25.9,77.08a115.72,115.72,0,0,0,14,51.24A7,7,0,0,0,225,330.28a101.75,101.75,0,0,1-12.3-45c-.94-25.15,7.09-49.13,22.61-67.53a86.27,86.27,0,0,1,23-19.36,6.56,6.56,0,0,0,1.12-.49,87.94,87.94,0,0,1,43.86-11.65c52.5,0,95.21,46.54,95.21,103.76C398.52,380.47,334.59,454.08,256,454.08Z"/><path d="M223.53,102.27c27,21,26.55,62.74,26.52,64.51a7,7,0,0,0,6.86,7.13h.14a7,7,0,0,0,7-6.86,117.84,117.84,0,0,0-3.21-27.61c1.51.08,3,.13,4.51.13a79,79,0,0,0,78.19-88.94l-.68-5.39-5.39-.68a79,79,0,0,0-88,66.28,72.36,72.36,0,0,0-17.31-19.62,7,7,0,1,0-8.59,11Zm58-25.31a64.53,64.53,0,0,1,48.55-19,65,65,0,0,1-67.53,67.53A64.52,64.52,0,0,1,281.56,77Z"/></g></svg>